<?xml version="1.0" encoding="UTF-8"?>
<svg version="1.1" viewBox="0 0 64 64" xmlns="http://www.w3.org/2000/svg" xmlns:xlink="http://www.w3.org/1999/xlink">
 <defs>
  <radialGradient id="radialGradient1035" cx="32" cy="32" r="32" gradientUnits="userSpaceOnUse">
   <stop style="stop-color:#7dd3fc" offset="0"/>
   <stop style="stop-color:#5eead4" offset="1"/>
  </radialGradient>
 </defs>
 <circle cx="32" cy="32" r="32" style="fill:url(#radialGradient1035)"/>
 <g style="font-variant-ligatures:none" aria-label="BSD GAMES">
  <path d="m25.922 24.367q0 1.5-1.125 2.3203-1.125 0.82031-3.125 0.82031h-5.5078v-11.008h5.0391q2.0156 0 3.0469 0.70312 1.0391 0.69531 1.0391 2.0625 0 0.9375-0.52344 1.5859-0.51562 0.64062-1.5781 0.86719 1.3359 0.15625 2.0312 0.84375 0.70312 0.67969 0.70312 1.8047zm-2.9531-4.7891q0-0.74219-0.47656-1.0547-0.46875-0.3125-1.3984-0.3125h-2.625v2.7266h2.6406q0.97656 0 1.4141-0.33594 0.44531-0.34375 0.44531-1.0234zm0.64062 4.6094q0-1.5469-2.2188-1.5469h-2.9219v3.1562h3.0078q1.1094 0 1.6172-0.39844 0.51562-0.40625 0.51562-1.2109z"/>
  <path d="m36.695 24.336q0 1.6172-1.2031 2.4766-1.1953 0.85156-3.5156 0.85156-2.1172 0-3.3203-0.75t-1.5469-2.2734l2.2266-0.36719q0.22656 0.875 0.88281 1.2734 0.65625 0.39062 1.8203 0.39062 2.4141 0 2.4141-1.4688 0-0.46875-0.28125-0.77344-0.27344-0.30469-0.78125-0.50781-0.5-0.20312-1.9297-0.49219-1.2344-0.28906-1.7188-0.46094-0.48438-0.17969-0.875-0.41406-0.39062-0.24219-0.66406-0.57812-0.27344-0.33594-0.42969-0.78906-0.14844-0.45312-0.14844-1.0391 0-1.4922 1.1172-2.2812 1.125-0.79688 3.2656-0.79688 2.0469 0 3.0703 0.64062 1.0312 0.64062 1.3281 2.1172l-2.2344 0.30469q-0.17188-0.71094-0.70312-1.0703-0.52344-0.35938-1.5078-0.35938-2.0938 0-2.0938 1.3125 0 0.42969 0.21875 0.70312 0.22656 0.27344 0.66406 0.46875 0.4375 0.1875 1.7734 0.47656 1.5859 0.33594 2.2656 0.625 0.6875 0.28125 1.0859 0.66406 0.39844 0.375 0.60938 0.90625 0.21094 0.52344 0.21094 1.2109z"/>
  <path d="m48.203 21.922q0 1.7031-0.67188 2.9766-0.66406 1.2656-1.8906 1.9375-1.2188 0.67188-2.7969 0.67188h-4.4531v-11.008h3.9844q2.7812 0 4.3047 1.4062 1.5234 1.3984 1.5234 4.0156zm-2.3203 0q0-1.7734-0.92188-2.7031-0.92188-0.9375-2.6328-0.9375h-1.6328v7.4453h1.9531q1.4844 0 2.3594-1.0234 0.875-1.0234 0.875-2.7812z"/>
  <path d="m9.6953 41.859q0.89844 0 1.7422-0.25781 0.84375-0.26562 1.3047-0.67188v-1.5234h-2.6875v-1.7031h4.7969v4.0469q-0.875 0.89844-2.2812 1.4062-1.3984 0.50781-2.9375 0.50781-2.6875 0-4.1328-1.4844-1.4453-1.4922-1.4453-4.2266 0-2.7188 1.4531-4.1641 1.4531-1.4531 4.1797-1.4531 3.875 0 4.9297 2.8672l-2.125 0.64062q-0.34375-0.83594-1.0781-1.2656-0.73438-0.42969-1.7266-0.42969-1.625 0-2.4688 0.98438t-0.84375 2.8203q0 1.8672 0.86719 2.8906 0.875 1.0156 2.4531 1.0156z"/>
  <path d="m23.695 43.508-0.97656-2.8125h-4.1953l-0.97656 2.8125h-2.3047l4.0156-11.008h2.7188l4 11.008zm-3.0781-9.3125-0.04687 0.17188q-0.07813 0.28125-0.1875 0.64062-0.10938 0.35938-1.3438 3.9531h3.1641l-1.0859-3.1641-0.33594-1.0625z"/>
  <path d="m36.109 43.508v-6.6719q0-0.22656 0-0.45312 0.0078-0.22656 0.07813-1.9453-0.55469 2.1016-0.82031 2.9297l-1.9844 6.1406h-1.6406l-1.9844-6.1406-0.83594-2.9297q0.09375 1.8125 0.09375 2.3984v6.6719h-2.0469v-11.008h3.0859l1.9688 6.1562 0.17188 0.59375 0.375 1.4766 0.49219-1.7656 2.0234-6.4609h3.0703v11.008z"/>
  <path d="m40.297 43.508v-11.008h8.6562v1.7812h-6.3516v2.7656h5.875v1.7812h-5.875v2.8984h6.6719v1.7812z"/>
  <path d="m59.945 40.336q0 1.6172-1.2031 2.4766-1.1953 0.85156-3.5156 0.85156-2.1172 0-3.3203-0.75t-1.5469-2.2734l2.2266-0.36719q0.22656 0.875 0.88281 1.2734 0.65625 0.39062 1.8203 0.39062 2.4141 0 2.4141-1.4688 0-0.46875-0.28125-0.77344-0.27344-0.30469-0.78125-0.50781-0.5-0.20312-1.9297-0.49219-1.2344-0.28906-1.7188-0.46094-0.48438-0.17969-0.875-0.41406-0.39062-0.24219-0.66406-0.57812-0.27344-0.33594-0.42969-0.78906-0.14844-0.45312-0.14844-1.0391 0-1.4922 1.1172-2.2812 1.125-0.79688 3.2656-0.79688 2.0469 0 3.0703 0.64062 1.0312 0.64062 1.3281 2.1172l-2.2344 0.30469q-0.17188-0.71094-0.70312-1.0703-0.52344-0.35938-1.5078-0.35938-2.0938 0-2.0938 1.3125 0 0.42969 0.21875 0.70312 0.22656 0.27344 0.66406 0.46875 0.4375 0.1875 1.7734 0.47656 1.5859 0.33594 2.2656 0.625 0.6875 0.28125 1.0859 0.66406 0.39844 0.375 0.60938 0.90625 0.21094 0.52344 0.21094 1.2109z"/>
 </g>
</svg>
